# xmcd CD database file
#
# Track frame offsets:
#	150
#	34275
#	54120
#	110515
#	138442
#	175707
#	194532
#
# Disc length: 2952 seconds
#
# Revision: 0
# Processed by: cddbd v1.4PL0 Copyright (c) Steve Scherf et al.
# Submitted via: CDex 1.51
#
DISCID=5b0b8607
DTITLE=Tom Peron and Bud Spangler Quartet - Interplay
DYEAR=1994
DGENRE=Jazz
TTITLE0=Mr. Billou's Groove
TTITLE1=Oleo
TTITLE2=Summertime
TTITLE3=Trumpeter's Revenge
TTITLE4=Sweet Lorraine
TTITLE5=We See
TTITLE6=Summer Night
EXTD=YEAR: 1994
EXTT0=
EXTT1=
EXTT2=
EXTT3=
EXTT4=
EXTT5=
EXTT6=
PLAYORDER=
